<?xml version="1.0" encoding="UTF-8"?>
<!-- Generator: Adobe Illustrator 27.0.0, SVG Export Plug-In . SVG Version: 6.00 Build 0)  -->
<svg xmlns="http://www.w3.org/2000/svg" xmlns:xlink="http://www.w3.org/1999/xlink" version="1.1" id="Capa_1" x="0px" y="0px" viewBox="0 0 512.003 512.003" style="enable-background:new 0 0 512.003 512.003;" xml:space="preserve" width="512" height="512">
<g>
	<path style="fill:#33CCCC;" d="M256.002,227.355c-32.283,0-48.648-5.455-64.475-10.73c-14.813-4.938-28.804-9.602-57.517-9.602   c-6.075,0-11-4.925-11-11s4.925-11,11-11c32.283,0,48.648,5.455,64.474,10.73c14.813,4.938,28.805,9.602,57.518,9.602   s42.705-4.664,57.518-9.602c15.826-5.275,32.191-10.73,64.474-10.73c6.075,0,11,4.925,11,11s-4.925,11-11,11   c-28.713,0-42.704,4.664-57.517,9.602C304.65,221.9,288.285,227.355,256.002,227.355z"/>
	<path style="fill:#33CCCC;" d="M327.165,156.197c-1.153,0-2.326-0.183-3.48-0.567c-5.763-1.921-8.878-8.151-6.957-13.914   l30.498-91.494c1.497-4.492,5.701-7.521,10.436-7.521h81.328c6.075,0,11,4.925,11,11s-4.925,11-11,11h-73.4l-27.991,83.972   C336.062,153.282,331.77,156.197,327.165,156.197z"/>
	<path style="fill:#33CCCC;" d="M242.345,33.932c-0.729-4.509-4.167-8.098-8.641-9.019l-119.9-24.685   c-5.464-1.129-10.901,2.016-12.658,7.308L62.574,123.716c-1.439,4.334-0.05,9.107,3.49,11.992c2.009,1.637,4.473,2.474,6.952,2.474   c1.889,0,3.787-0.486,5.498-1.474l69.71-40.247l31.311,54.233c2.038,3.529,5.735,5.502,9.537,5.502c1.866,0,3.758-0.476,5.49-1.476   c5.261-3.038,7.064-9.765,4.026-15.026l-31.311-54.233l69.71-40.247C240.941,42.93,243.074,38.441,242.345,33.932z M92.57,103.189   l26.375-79.441l81.985,16.879L92.57,103.189z"/>
	<path d="M377.993,134.194H134.01c-6.075,0-11,4.925-11,11v57.696c0,40.499,24.202,76.608,60.996,92.219v2.574   c0,35.959,26.5,65.844,60.996,71.156v60.189c-39.314,0.451-71.162,32.556-71.162,71.975c0,6.075,4.925,11,11,11h142.323   c6.075,0,11-4.925,11-11c0-39.419-31.847-71.524-71.162-71.975v-60.189c34.496-5.311,60.996-35.196,60.996-71.156v-2.574   c36.793-15.611,60.996-51.72,60.996-92.219v-57.696C388.993,139.118,384.069,134.194,377.993,134.194z M314.944,490.003H197.059   c5.024-22.295,24.986-38.996,48.776-38.996h20.332C289.958,451.007,309.92,467.708,314.944,490.003z M366.993,202.89   c0,33.715-21.49,63.53-53.474,74.192c-4.492,1.498-7.522,5.701-7.522,10.436v10.166c0,27.568-22.428,49.996-49.996,49.996   s-49.996-22.428-49.996-49.996v-10.166c0-4.735-3.03-8.938-7.521-10.436C166.5,266.42,145.01,236.605,145.01,202.89v-46.696   h221.983V202.89z"/>
</g>















</svg>
