<svg height="512" viewBox="0 0 345 345" width="512" xmlns="http://www.w3.org/2000/svg"><g id="Layer_4" data-name="Layer 4"><path d="m296.94 257.17c-4.27-6.14-8.3-11.93-10.11-17.11l-.21-.6-.28-.56c-1.16-2.3-2.18-4.38-3.11-6.34-9.83-27.17-13.71-48-12.6-67.55v-.34c.05-2.58.16-5.2.32-7.78v-.55c0-2.58 0-5.16 0-7.74-.06-12.11-.38-22-1-31.12-.2-3-.45-5.91-.75-8.74v-.19a131.77 131.77 0 0 0 -6.43-27.23c-1-2.86-2.13-5.76-3.34-8.61l-.07-.16c-13.86-31.06-38.84-54.47-68.44-64.2-.75-.25-1.5-.49-2.25-.72-3.12-1-6.42-2-9.81-2.86-28.5-7.27-56.46-6.21-80.86 3.06-2.87 1.09-5.78 2.33-8.65 3.71-11.21 5-20.81 13.05-28.52 23.95-1.66 2.34-3.23 4.8-4.8 7.51-5.72 9.55-13.7 24.1-17.21 40.32-.54 2.5-1 5.09-1.53 7.89a68.85 68.85 0 0 0 -2.17 8.69 90.88 90.88 0 0 0 -1.17 9.3v.11c-1.48 22.43-.11 46.52 4.18 73.63.52 3.31 1.08 6.71 1.71 10.39a439.79 439.79 0 0 0 22.48 88.51c.79 3.08 1.66 6.07 2.6 8.92 6.25 18.83 16.15 31.78 30.28 39.59l.86.48.94.29a40.26 40.26 0 0 0 11 1.7c12.19.24 26.76-4.57 40.08-13.24l.78.41a27 27 0 0 1 4.15 2.9c1.19 1 2.36 2 3.49 3l1.53 1.36c2 1.72 4 3.5 6.08 5.18 5.53 4.51 13.09 9.94 22.46 11.83a35.84 35.84 0 0 0 7.21.73 37.19 37.19 0 0 0 5.92-.48h.24c13.76-2.58 20.21-14 25.4-23.13 2.22-3.91 4.31-7.61 6.63-10.16l.58-.7a.37.37 0 0 1 .18-.16h.12c2.61-.9 9.28 1.34 13 2.63a49.07 49.07 0 0 1 4.82 2.29 53.52 53.52 0 0 1 5 3.1l.9.62 1 .4a58.84 58.84 0 0 0 9.21 2.79 44.58 44.58 0 0 0 9.26 1c11.23 0 20.79-4.78 28.42-14.08 15.54-18.85 2.2-37.98-7.52-51.94z" fill="#fff"/><path d="m297.28 303.07c-6.25 7.62-13.51 10.59-21.14 10.61a35 35 0 0 1 -7.26-.79 49.22 49.22 0 0 1 -7.74-2.35 62.51 62.51 0 0 0 -5.94-3.65 57.75 57.75 0 0 0 -6-2.82c-6.16-2.11-13.78-4.66-19.44-2.7a9.8 9.8 0 0 0 -4.77 3.48c-8.92 9.82-12.49 27.67-26.77 30.35a26.72 26.72 0 0 1 -9.72-.18c-6.79-1.37-12.69-5.25-18.38-9.9-2.07-1.67-4.1-3.46-6.14-5.25-1.47-1.3-3.14-2.84-4.93-4.31a36.25 36.25 0 0 0 -5.7-3.93c-2.41-2.32-6.87-2.32-9.55-.54-10.71 7.14-23.87 12.49-35.55 12.26a30.73 30.73 0 0 1 -8.43-1.29c-13.65-7.54-21.14-20-25.89-34.3-.93-2.86-1.8-5.76-2.55-8.76a430.38 430.38 0 0 1 -22.19-87.19c-.6-3.52-1.17-6.94-1.71-10.36-3.75-23.73-5.65-47.71-4.08-71.54a82 82 0 0 1 1-8.34 58.2 58.2 0 0 1 2.06-8.08c.47-2.74 1-5.48 1.58-8.2 2.96-13.36 9.19-25.86 16.16-37.5 1.36-2.35 2.81-4.64 4.37-6.84 6.23-8.8 14.25-16.17 24.77-20.83q4-1.9 8-3.45c23.55-9 50.11-9.13 75.15-2.74 3.13.79 6.23 1.69 9.26 2.7.71.22 1.41.43 2.11.67 28.39 9.34 50.78 32.09 62.85 59.1 1.12 2.65 2.16 5.32 3.12 8a122.08 122.08 0 0 1 6 25.27q.44 4.21.72 8.39c.7 10.14.94 20.32 1 30.53q0 3.83 0 7.66-.26 4.08-.34 8.17c-1.39 24.36 4.86 48.46 13.3 71.71 1.1 2.34 2.24 4.67 3.41 7 6.87 19.77 35.43 40.3 19.36 59.94z" fill="#c9cfd3"/><path d="m297.28 303.07c-6.25 7.62-13.51 10.59-21.14 10.61 6.19-2.69 10.91-7 8.67-14.25-3.94-12.6-15.75-21.92-23.19-33.46a44.57 44.57 0 0 1 -3.85-7.23c-1.16-2.67-1.79-5.15-3.68-8a29.32 29.32 0 0 1 -3.09-5.74 114 114 0 0 1 -4.55-15.93c-.56-2.62-1-5.23-1.42-7.83s-.72-5.19-1-7.77l-.14-.76a52.09 52.09 0 0 1 -.47-14.74c.09-.77.16-1.56.24-2.34.24-2.67.41-5.38.54-8.11.49-10.89.22-22.07.65-32.95q-.28-3.49-.6-6.93c-1-11.44-2.15-22.78-3-34-.51-2.89-1.12-5.76-1.82-8.58-4.91-19.81-14.38-38-25.89-55.47-1.54-2.28-3.12-4.51-4.77-6.71-6.38-8.56-13.77-16.64-20.87-25.58 28.39 9.34 50.78 32.09 62.85 59.1 1.12 2.65 2.16 5.32 3.12 8a122.08 122.08 0 0 1 6 25.27q.44 4.21.72 8.39c.7 10.14.94 20.32 1 30.53q0 3.83 0 7.66-.26 4.08-.34 8.17c-1.39 24.36 4.86 48.46 13.3 71.71 1.1 2.34 2.24 4.67 3.41 7 6.83 19.77 35.39 40.3 19.32 59.94z" fill="#b9baba"/><g fill="#fdfeff"><path d="m52.08 152.93a18.19 18.19 0 0 0 .72 5.7 6.15 6.15 0 0 0 3.83 4 2.19 2.19 0 0 0 1.69-.09c.85-.5.94-1.68.93-2.67-.05-4.13 2-25.65-2.4-26.47-7.63-1.4-4.85 16.24-4.77 19.53z"/><path d="m68.09 223.41c1.16.2 1.64-1.43 1.63-2.61a168 168 0 0 0 -6.12-42.65c-1-3.52-5.48-7.11-7.2-2.07-1.43 4.19.12 10.92.72 15.18a90.74 90.74 0 0 0 10.97 32.15z"/></g></g><g id="Emoticons"><path d="m204.19 58.86a36.16 36.16 0 0 1 -25-10 4.38 4.38 0 1 1 6.16-6.22 27.22 27.22 0 0 0 24.48 6.84 4.38 4.38 0 1 1 2.11 8.5 32.24 32.24 0 0 1 -7.75.88z"/><path d="m58.81 58.86a32.24 32.24 0 0 1 -7.76-.93 4.38 4.38 0 1 1 2.11-8.5 27.22 27.22 0 0 0 24.48-6.84 4.38 4.38 0 1 1 6.16 6.22 36.15 36.15 0 0 1 -24.99 10.05z"/><path d="m158.44 183.67a4.35 4.35 0 0 1 -2.19-.59c-12-6.94-37.47-6.94-49.5 0a4.38 4.38 0 0 1 -4.38-7.58c14.7-8.49 43.56-8.49 58.26 0a4.38 4.38 0 0 1 -2.19 8.17z"/><path id="path941-4-21-1-4-6-3-67-2-5-73" d="m142.55 79a46.65 46.65 0 1 0 86.32 24.54 46.68 46.68 0 0 0 -.27-5c-30.4-16-61.71-20.23-86.05-19.55z" fill="#fff"/><path id="path941-8-5-3-2-52-0-0-5-7-2-2" d="m152.81 79a35 35 0 1 0 57.14 11c-11.53-4.95-35.6-10.71-57.14-11z"/><path d="m149.6 103.67a4.38 4.38 0 0 1 -4.27-5.34 35.56 35.56 0 0 1 8.86-16.06 4.38 4.38 0 0 1 6 6.38 27.38 27.38 0 0 0 -6.31 11.6 4.38 4.38 0 0 1 -4.28 3.42z" fill="#fff"/><path id="path941-4-21-1-4-6-3-67-2-5-73-2" d="m120.45 79a46.65 46.65 0 1 1 -86.32 24.54 46.68 46.68 0 0 1 .27-5c30.4-16 61.71-20.23 86.05-19.55z" fill="#fff" data-name="path941-4-21-1-4-6-3-67-2-5-73"/><path id="path941-8-5-3-2-52-0-0-5-7-2-2-2" d="m110.19 79a35 35 0 1 1 -57.14 11c11.53-4.95 35.6-10.71 57.14-11z" data-name="path941-8-5-3-2-52-0-0-5-7-2-2"/><path d="m58.43 100.39a4.38 4.38 0 0 1 -1.82-8.39c5.89-2.68 17.2-5.57 20.43-6.26a4.38 4.38 0 0 1 1.84 8.56c-3.33.7-13.76 3.48-18.65 5.7a4.37 4.37 0 0 1 -1.8.39z" fill="#fff"/></g></svg>